<svg width="17" height="15" viewBox="0 0 17 15" fill="none" xmlns="http://www.w3.org/2000/svg">
<path d="M8.46169 0.697932L10.1266 5.50174C10.1685 5.62251 10.2822 5.7035 10.4101 5.7035H15.7617C15.9586 5.7035 16.037 5.95798 15.8743 6.0688L11.5731 8.99852C11.4611 9.0748 11.4141 9.21668 11.4585 9.34471L13.1079 14.1037C13.171 14.2857 12.9655 14.4429 12.8063 14.3345L8.44161 11.3615C8.33971 11.2921 8.20573 11.2921 8.10384 11.3615L3.73913 14.3345C3.57992 14.4429 3.37449 14.2857 3.43757 14.1037L5.08694 9.34471C5.13131 9.21668 5.08436 9.0748 4.97237 8.99852L0.671125 6.0688C0.508426 5.95798 0.58686 5.7035 0.783715 5.7035H6.13538C6.2632 5.7035 6.37698 5.62251 6.41884 5.50174L8.08375 0.697933C8.14591 0.518591 8.39954 0.518591 8.46169 0.697932Z" stroke="black" stroke-width="0.1"/>
</svg>
